#!OML:ASF E:\motion texture\Top Level 1\Subject 1\Session 1\male.ASF
:FULLY-SPECIFIED
:DEGREES
567
root -27.9151 17.8402 5.1312 156.827 -84.1556 -149.837
lowerback 1.46097 1.28883 1.0724
upperback -1.38096 1.76477 2.12287
thorax -2.27005 0.871211 1.51744
lowerneck -14.1589 -0.922054 -4.74042
upperneck 6.01773 -1.23192 8.4744
head 4.18635 -0.24623 3.30283
rclavicle -1.97045e-014 -1.31198e-014
rhumerus 11.2197 28.9446 -78.0239
rradius 79.4289
rwrist 17.8039
rhand -22.9496 -23.3989
rfingers 7.12502
rthumb 3.49175 -53.35
lclavicle -1.97045e-014 -1.31198e-014
lhumerus 7.47401 -26.3919 90.9304
lradius 65.4624
lwrist -4.49711
lhand -17.7063 33.4501
lfingers 7.12502
lthumb 8.55375 63.2568
rfemur -26.1687 -6.8944 21.8779
rtibia 57.8487
rfoot 0.253814 -18.0248
rtoes 2.00769
lfemur -21.4242 -3.46627 -17.3553
ltibia 24.8708
lfoot -6.99663 1.19925
ltoes -0.637284
568
root -28.0629 17.8519 5.13502 158.359 -84.3406 -151.4
lowerback 1.46443 1.22482 0.92583
upperback -1.42659 1.67718 2.12052
thorax -2.32135 0.830059 1.59958
lowerneck -13.9156 -0.878591 -4.7804
upperneck 5.43402 -1.15281 8.57486
head 3.96447 -0.217842 3.3414
rclavicle -7.05686e-015 7.95139e-016
rhumerus 13.1524 29.1055 -76.8639
rradius 79.7532
rwrist 17.6916
rhand -23.2392 -23.4479
rfingers 7.12502
rthumb 3.2121 -53.4035
lclavicle -7.05686e-015 7.95139e-016
lhumerus 9.45103 -26.8453 89.9223
lradius 66.1741
lwrist -4.04647
lhand -17.6739 33.4371
lfingers 7.12502
lthumb 8.58503 63.2426
rfemur -27.0607 -7.07516 21.6321
rtibia 57.5299
rfoot 0.0190188 -18.2005
rtoes 2.51763
lfemur -20.6841 -3.49187 -17.7622
ltibia 24.5966
lfoot -7.3313 1.11936
ltoes -0.604391
569
root -28.2109 17.863 5.13804 159.952 -84.5222 -153.018
lowerback 1.45901 1.16179 0.783613
upperback -1.47589 1.59072 2.1173
thorax -2.37091 0.789485 1.67862
lowerneck -13.6738 -0.836645 -4.81992
upperneck 4.8449 -1.07499 8.67103
head 3.74184 -0.190912 3.37834
rclavicle 2.48481e-015 -1.59028e-015
rhumerus 15.1087 29.1964 -75.6746
rradius 80.0293
rwrist 17.5605
rhand -23.5232 -23.4968
rfingers 7.12502
rthumb 2.93788 -53.4563
lclavicle 2.48481e-015 -1.59028e-015
lhumerus 11.4525 -27.2115 88.8723
lradius 66.8412
lwrist -3.59461
lhand -17.6318 33.4066
lfingers 7.12502
lthumb 8.62571 63.2104
rfemur -27.9118 -7.23663 21.3956
rtibia 57.0506
rfoot -0.263404 -18.3497
rtoes 2.99982
lfemur -19.9412 -3.51648 -18.1592
ltibia 24.3034
lfoot -7.66291 1.04292
ltoes -0.591986
570
root -28.359 17.8733 5.14023 161.599 -84.7004 -154.683
lowerback 1.44505 1.09967 0.64661
upperback -1.529 1.50533 2.11314
thorax -2.41905 0.749442 1.75398
lowerneck -13.4337 -0.795657 -4.86033
upperneck 4.25251 -0.99793 8.76591
head 3.51915 -0.165005 3.41488
rclavicle 7.82715e-015 -2.78299e-015
rhumerus 17.0821 29.2174 -74.4632
rradius 80.2564
rwrist 17.4112
rhand -23.7991 -23.5534
rfingers 7.12502
rthumb 2.67142 -53.5164
lclavicle 7.82715e-015 -2.78299e-015
lhumerus 13.4687 -27.4908 87.7902
lradius 67.4633
lwrist -3.14256
lhand -17.5701 33.3725
lfingers 7.12502
lthumb 8.68524 63.1739
rfemur -28.7187 -7.3779 21.1679
rtibia 56.4125
rfoot -0.588913 -18.4699
rtoes 3.45087
lfemur -19.1965 -3.53943 -18.545
ltibia 23.9945
lfoot -7.99157 0.974102
ltoes -0.597577
571
root -28.5075 17.8828 5.14158 163.302 -84.8758 -156.396
lowerback 1.42185 1.03878 0.514958
upperback -1.5857 1.42148 2.10784
thorax -2.4652 0.710148 1.82535
lowerneck -13.1979 -0.756814 -4.90167
upperneck 3.66004 -0.923283 8.85897
head 3.29783 -0.140853 3.45083
rclavicle -1.43125e-014 1.66979e-014
rhumerus 19.0636 29.1668 -73.2354
rradius 80.4365
rwrist 17.2444
rhand -24.0613 -23.6135
rfingers 7.12502
rthumb 2.41813 -53.5796
lclavicle -1.43125e-014 1.66979e-014
lhumerus 15.4974 -27.6867 86.6823
lradius 68.0341
lwrist -2.68565
lhand -17.498 33.331
lfingers 7.12502
lthumb 8.75481 63.1294
rfemur -29.4787 -7.4997 20.9467
rtibia 55.6197
rfoot -0.961677 -18.5555
rtoes 3.82921
lfemur -18.451 -3.5606 -18.9202
ltibia 23.6718
lfoot -8.31597 0.912174
ltoes -0.635872
572
root -28.6564 17.8914 5.14202 165.046 -85.048 -158.144
lowerback 1.38999 0.97871 0.389464
upperback -1.64527 1.33865 2.10215
thorax -2.50896 0.671323 1.893
lowerneck -12.9655 -0.719145 -4.94406
upperneck 3.06592 -0.849634 8.94924
head 3.07716 -0.117826 3.48602
rclavicle 3.97569e-016 1.19271e-015
rhumerus 21.0533 29.0469 -71.9947
rradius 80.5642
rwrist 17.063
rhand -24.3202 -23.6781
rfingers 7.12502
rthumb 2.16807 -53.6468
lclavicle 3.97569e-016 1.19271e-015
lhumerus 17.5311 -27.8007 85.5553
lradius 68.5509
lwrist -2.2226
lhand -17.4146 33.2853
lfingers 7.12502
lthumb 8.83524 63.0804
rfemur -30.1906 -7.60089 20.732
rtibia 54.68
rfoot -1.3671 -18.6067
rtoes 4.15668
lfemur -17.7058 -3.5789 -19.2819
ltibia 23.3388
lfoot -8.63824 0.8538
ltoes -0.683772
